<svg class="rich-terminal" viewBox="0 0 1458 1026.0" xmlns="http://www.w3.org/2000/svg">
    <!-- Generated with Rich https://www.textualize.io -->
    <style>

    @font-face {
        font-family: "Fira Code";
        src: local("FiraCode-Regular"),
                url("https://cdnjs.cloudflare.com/ajax/libs/firacode/6.2.0/woff2/FiraCode-Regular.woff2") format("woff2"),
                url("https://cdnjs.cloudflare.com/ajax/libs/firacode/6.2.0/woff/FiraCode-Regular.woff") format("woff");
        font-style: normal;
        font-weight: 400;
    }
    @font-face {
        font-family: "Fira Code";
        src: local("FiraCode-Bold"),
                url("https://cdnjs.cloudflare.com/ajax/libs/firacode/6.2.0/woff2/FiraCode-Bold.woff2") format("woff2"),
                url("https://cdnjs.cloudflare.com/ajax/libs/firacode/6.2.0/woff/FiraCode-Bold.woff") format("woff");
        font-style: bold;
        font-weight: 700;
    }

    .terminal-2161968182-matrix {
        font-family: Fira Code, monospace;
        font-size: 20px;
        line-height: 24.4px;
        font-variant-east-asian: full-width;
    }

    .terminal-2161968182-title {
        font-size: 18px;
        font-weight: bold;
        font-family: arial;
    }

    .terminal-2161968182-r1 { fill: #c5c8c6 }
.terminal-2161968182-r2 { fill: #e0e0e0 }
.terminal-2161968182-r3 { fill: #a0a3a6 }
.terminal-2161968182-r4 { fill: #121212 }
.terminal-2161968182-r5 { fill: #191919 }
.terminal-2161968182-r6 { fill: #737373 }
.terminal-2161968182-r7 { fill: #e0e0e0;font-weight: bold }
.terminal-2161968182-r8 { fill: #ffa62b;font-weight: bold }
.terminal-2161968182-r9 { fill: #495259 }
    </style>

    <defs>
    <clipPath id="terminal-2161968182-clip-terminal">
      <rect x="0" y="0" width="1438.6" height="975.0" />
    </clipPath>
    <clipPath id="terminal-2161968182-line-0">
    <rect x="0" y="1.5" width="1439.6" height="24.65"/>
            </clipPath>
<clipPath id="terminal-2161968182-line-1">
    <rect x="0" y="25.9" width="1439.6" height="24.65"/>
            </clipPath>
<clipPath id="terminal-2161968182-line-2">
    <rect x="0" y="50.3" width="1439.6" height="24.65"/>
            </clipPath>
<clipPath id="terminal-2161968182-line-3">
    <rect x="0" y="74.7" width="1439.6" height="24.65"/>
            </clipPath>
<clipPath id="terminal-2161968182-line-4">
    <rect x="0" y="99.1" width="1439.6" height="24.65"/>
            </clipPath>
<clipPath id="terminal-2161968182-line-5">
    <rect x="0" y="123.5" width="1439.6" height="24.65"/>
            </clipPath>
<clipPath id="terminal-2161968182-line-6">
    <rect x="0" y="147.9" width="1439.6" height="24.65"/>
            </clipPath>
<clipPath id="terminal-2161968182-line-7">
    <rect x="0" y="172.3" width="1439.6" height="24.65"/>
            </clipPath>
<clipPath id="terminal-2161968182-line-8">
    <rect x="0" y="196.7" width="1439.6" height="24.65"/>
            </clipPath>
<clipPath id="terminal-2161968182-line-9">
    <rect x="0" y="221.1" width="1439.6" height="24.65"/>
            </clipPath>
<clipPath id="terminal-2161968182-line-10">
    <rect x="0" y="245.5" width="1439.6" height="24.65"/>
            </clipPath>
<clipPath id="terminal-2161968182-line-11">
    <rect x="0" y="269.9" width="1439.6" height="24.65"/>
            </clipPath>
<clipPath id="terminal-2161968182-line-12">
    <rect x="0" y="294.3" width="1439.6" height="24.65"/>
            </clipPath>
<clipPath id="terminal-2161968182-line-13">
    <rect x="0" y="318.7" width="1439.6" height="24.65"/>
            </clipPath>
<clipPath id="terminal-2161968182-line-14">
    <rect x="0" y="343.1" width="1439.6" height="24.65"/>
            </clipPath>
<clipPath id="terminal-2161968182-line-15">
    <rect x="0" y="367.5" width="1439.6" height="24.65"/>
            </clipPath>
<clipPath id="terminal-2161968182-line-16">
    <rect x="0" y="391.9" width="1439.6" height="24.65"/>
            </clipPath>
<clipPath id="terminal-2161968182-line-17">
    <rect x="0" y="416.3" width="1439.6" height="24.65"/>
            </clipPath>
<clipPath id="terminal-2161968182-line-18">
    <rect x="0" y="440.7" width="1439.6" height="24.65"/>
            </clipPath>
<clipPath id="terminal-2161968182-line-19">
    <rect x="0" y="465.1" width="1439.6" height="24.65"/>
            </clipPath>
<clipPath id="terminal-2161968182-line-20">
    <rect x="0" y="489.5" width="1439.6" height="24.65"/>
            </clipPath>
<clipPath id="terminal-2161968182-line-21">
    <rect x="0" y="513.9" width="1439.6" height="24.65"/>
            </clipPath>
<clipPath id="terminal-2161968182-line-22">
    <rect x="0" y="538.3" width="1439.6" height="24.65"/>
            </clipPath>
<clipPath id="terminal-2161968182-line-23">
    <rect x="0" y="562.7" width="1439.6" height="24.65"/>
            </clipPath>
<clipPath id="terminal-2161968182-line-24">
    <rect x="0" y="587.1" width="1439.6" height="24.65"/>
            </clipPath>
<clipPath id="terminal-2161968182-line-25">
    <rect x="0" y="611.5" width="1439.6" height="24.65"/>
            </clipPath>
<clipPath id="terminal-2161968182-line-26">
    <rect x="0" y="635.9" width="1439.6" height="24.65"/>
            </clipPath>
<clipPath id="terminal-2161968182-line-27">
    <rect x="0" y="660.3" width="1439.6" height="24.65"/>
            </clipPath>
<clipPath id="terminal-2161968182-line-28">
    <rect x="0" y="684.7" width="1439.6" height="24.65"/>
            </clipPath>
<clipPath id="terminal-2161968182-line-29">
    <rect x="0" y="709.1" width="1439.6" height="24.65"/>
            </clipPath>
<clipPath id="terminal-2161968182-line-30">
    <rect x="0" y="733.5" width="1439.6" height="24.65"/>
            </clipPath>
<clipPath id="terminal-2161968182-line-31">
    <rect x="0" y="757.9" width="1439.6" height="24.65"/>
            </clipPath>
<clipPath id="terminal-2161968182-line-32">
    <rect x="0" y="782.3" width="1439.6" height="24.65"/>
            </clipPath>
<clipPath id="terminal-2161968182-line-33">
    <rect x="0" y="806.7" width="1439.6" height="24.65"/>
            </clipPath>
<clipPath id="terminal-2161968182-line-34">
    <rect x="0" y="831.1" width="1439.6" height="24.65"/>
            </clipPath>
<clipPath id="terminal-2161968182-line-35">
    <rect x="0" y="855.5" width="1439.6" height="24.65"/>
            </clipPath>
<clipPath id="terminal-2161968182-line-36">
    <rect x="0" y="879.9" width="1439.6" height="24.65"/>
            </clipPath>
<clipPath id="terminal-2161968182-line-37">
    <rect x="0" y="904.3" width="1439.6" height="24.65"/>
            </clipPath>
<clipPath id="terminal-2161968182-line-38">
    <rect x="0" y="928.7" width="1439.6" height="24.65"/>
            </clipPath>
    </defs>

    <rect fill="#292929" stroke="rgba(255,255,255,0.35)" stroke-width="1" x="1" y="1" width="1456" height="1024" rx="8"/><text class="terminal-2161968182-title" fill="#c5c8c6" text-anchor="middle" x="728" y="27">sshm&#160;—&#160;SSH&#160;Server&#160;Manager</text>
            <g transform="translate(26,22)">
            <circle cx="0" cy="0" r="7" fill="#ff5f57"/>
            <circle cx="22" cy="0" r="7" fill="#febc2e"/>
            <circle cx="44" cy="0" r="7" fill="#28c840"/>
            </g>
        
    <g transform="translate(9, 41)" clip-path="url(#terminal-2161968182-clip-terminal)">
    <rect fill="#242f38" x="0" y="1.5" width="12.2" height="24.65" shape-rendering="crispEdges"/><rect fill="#242f38" x="12.2" y="1.5" width="12.2" height="24.65" shape-rendering="crispEdges"/><rect fill="#242f38" x="24.4" y="1.5" width="61" height="24.65" shape-rendering="crispEdges"/><rect fill="#242f38" x="85.4" y="1.5" width="12.2" height="24.65" shape-rendering="crispEdges"/><rect fill="#242f38" x="97.6" y="1.5" width="402.6" height="24.65" shape-rendering="crispEdges"/><rect fill="#242f38" x="500.2" y="1.5" width="305" height="24.65" shape-rendering="crispEdges"/><rect fill="#242f38" x="805.2" y="1.5" width="36.6" height="24.65" shape-rendering="crispEdges"/><rect fill="#242f38" x="841.8" y="1.5" width="73.2" height="24.65" shape-rendering="crispEdges"/><rect fill="#242f38" x="915" y="1.5" width="402.6" height="24.65" shape-rendering="crispEdges"/><rect fill="#242f38" x="1317.6" y="1.5" width="12.2" height="24.65" shape-rendering="crispEdges"/><rect fill="#242f38" x="1329.8" y="1.5" width="0" height="24.65" shape-rendering="crispEdges"/><rect fill="#242f38" x="1329.8" y="1.5" width="97.6" height="24.65" shape-rendering="crispEdges"/><rect fill="#242f38" x="1427.4" y="1.5" width="12.2" height="24.65" shape-rendering="crispEdges"/><rect fill="#121212" x="0" y="25.9" width="12.2" height="24.65" shape-rendering="crispEdges"/><rect fill="#191919" x="12.2" y="25.9" width="12.2" height="24.65" shape-rendering="crispEdges"/><rect fill="#1e1e1e" x="24.4" y="25.9" width="1390.8" height="24.65" shape-rendering="crispEdges"/><rect fill="#121212" x="1415.2" y="25.9" width="12.2" height="24.65" shape-rendering="crispEdges"/><rect fill="#121212" x="1427.4" y="25.9" width="12.2" height="24.65" shape-rendering="crispEdges"/><rect fill="#121212" x="0" y="50.3" width="12.2" height="24.65" shape-rendering="crispEdges"/><rect fill="#191919" x="12.2" y="50.3" width="12.2" height="24.65" shape-rendering="crispEdges"/><rect fill="#1e1e1e" x="24.4" y="50.3" width="24.4" height="24.65" shape-rendering="crispEdges"/><rect fill="#1e1e1e" x="48.8" y="50.3" width="97.6" height="24.65" shape-rendering="crispEdges"/><rect fill="#1e1e1e" x="146.4" y="50.3" width="1244.4" height="24.65" shape-rendering="crispEdges"/><rect fill="#1e1e1e" x="1390.8" y="50.3" width="24.4" height="24.65" shape-rendering="crispEdges"/><rect fill="#121212" x="1415.2" y="50.3" width="12.2" height="24.65" shape-rendering="crispEdges"/><rect fill="#121212" x="1427.4" y="50.3" width="12.2" height="24.65" shape-rendering="crispEdges"/><rect fill="#121212" x="0" y="74.7" width="12.2" height="24.65" shape-rendering="crispEdges"/><rect fill="#191919" x="12.2" y="74.7" width="12.2" height="24.65" shape-rendering="crispEdges"/><rect fill="#1e1e1e" x="24.4" y="74.7" width="1390.8" height="24.65" shape-rendering="crispEdges"/><rect fill="#121212" x="1415.2" y="74.7" width="12.2" height="24.65" shape-rendering="crispEdges"/><rect fill="#121212" x="1427.4" y="74.7" width="12.2" height="24.65" shape-rendering="crispEdges"/><rect fill="#242f38" x="0" y="99.1" width="36.6" height="24.65" shape-rendering="crispEdges"/><rect fill="#242f38" x="36.6" y="99.1" width="158.6" height="24.65" shape-rendering="crispEdges"/><rect fill="#242f38" x="195.2" y="99.1" width="256.2" height="24.65" shape-rendering="crispEdges"/><rect fill="#242f38" x="451.4" y="99.1" width="97.6" height="24.65" shape-rendering="crispEdges"/><rect fill="#242f38" x="549" y="99.1" width="73.2" height="24.65" shape-rendering="crispEdges"/><rect fill="#242f38" x="622.2" y="99.1" width="146.4" height="24.65" shape-rendering="crispEdges"/><rect fill="#242f38" x="768.6" y="99.1" width="646.6" height="24.65" shape-rendering="crispEdges"/><rect fill="#121212" x="1415.2" y="99.1" width="24.4" height="24.65" shape-rendering="crispEdges"/><rect fill="#153854" x="0" y="123.5" width="36.6" height="24.65" shape-rendering="crispEdges"/><rect fill="#153854" x="36.6" y="123.5" width="158.6" height="24.65" shape-rendering="crispEdges"/><rect fill="#153854" x="195.2" y="123.5" width="256.2" height="24.65" shape-rendering="crispEdges"/><rect fill="#153854" x="451.4" y="123.5" width="97.6" height="24.65" shape-rendering="crispEdges"/><rect fill="#153854" x="549" y="123.5" width="73.2" height="24.65" shape-rendering="crispEdges"/><rect fill="#153854" x="622.2" y="123.5" width="146.4" height="24.65" shape-rendering="crispEdges"/><rect fill="#153854" x="768.6" y="123.5" width="646.6" height="24.65" shape-rendering="crispEdges"/><rect fill="#121212" x="1415.2" y="123.5" width="24.4" height="24.65" shape-rendering="crispEdges"/><rect fill="#1e1e1e" x="0" y="147.9" width="36.6" height="24.65" shape-rendering="crispEdges"/><rect fill="#1e1e1e" x="36.6" y="147.9" width="158.6" height="24.65" shape-rendering="crispEdges"/><rect fill="#1e1e1e" x="195.2" y="147.9" width="256.2" height="24.65" shape-rendering="crispEdges"/><rect fill="#1e1e1e" x="451.4" y="147.9" width="97.6" height="24.65" shape-rendering="crispEdges"/><rect fill="#1e1e1e" x="549" y="147.9" width="73.2" height="24.65" shape-rendering="crispEdges"/><rect fill="#1e1e1e" x="622.2" y="147.9" width="146.4" height="24.65" shape-rendering="crispEdges"/><rect fill="#1e1e1e" x="768.6" y="147.9" width="646.6" height="24.65" shape-rendering="crispEdges"/><rect fill="#121212" x="1415.2" y="147.9" width="24.4" height="24.65" shape-rendering="crispEdges"/><rect fill="#1e1e1e" x="0" y="172.3" width="36.6" height="24.65" shape-rendering="crispEdges"/><rect fill="#1e1e1e" x="36.6" y="172.3" width="158.6" height="24.65" shape-rendering="crispEdges"/><rect fill="#1e1e1e" x="195.2" y="172.3" width="256.2" height="24.65" shape-rendering="crispEdges"/><rect fill="#1e1e1e" x="451.4" y="172.3" width="97.6" height="24.65" shape-rendering="crispEdges"/><rect fill="#1e1e1e" x="549" y="172.3" width="73.2" height="24.65" shape-rendering="crispEdges"/><rect fill="#1e1e1e" x="622.2" y="172.3" width="146.4" height="24.65" shape-rendering="crispEdges"/><rect fill="#1e1e1e" x="768.6" y="172.3" width="646.6" height="24.65" shape-rendering="crispEdges"/><rect fill="#121212" x="1415.2" y="172.3" width="24.4" height="24.65" shape-rendering="crispEdges"/><rect fill="#1e1e1e" x="0" y="196.7" width="36.6" height="24.65" shape-rendering="crispEdges"/><rect fill="#1e1e1e" x="36.6" y="196.7" width="158.6" height="24.65" shape-rendering="crispEdges"/><rect fill="#1e1e1e" x="195.2" y="196.7" width="256.2" height="24.65" shape-rendering="crispEdges"/><rect fill="#1e1e1e" x="451.4" y="196.7" width="97.6" height="24.65" shape-rendering="crispEdges"/><rect fill="#1e1e1e" x="549" y="196.7" width="73.2" height="24.65" shape-rendering="crispEdges"/><rect fill="#1e1e1e" x="622.2" y="196.7" width="146.4" height="24.65" shape-rendering="crispEdges"/><rect fill="#1e1e1e" x="768.6" y="196.7" width="646.6" height="24.65" shape-rendering="crispEdges"/><rect fill="#121212" x="1415.2" y="196.7" width="24.4" height="24.65" shape-rendering="crispEdges"/><rect fill="#1e1e1e" x="0" y="221.1" width="36.6" height="24.65" shape-rendering="crispEdges"/><rect fill="#1e1e1e" x="36.6" y="221.1" width="158.6" height="24.65" shape-rendering="crispEdges"/><rect fill="#1e1e1e" x="195.2" y="221.1" width="256.2" height="24.65" shape-rendering="crispEdges"/><rect fill="#1e1e1e" x="451.4" y="221.1" width="97.6" height="24.65" shape-rendering="crispEdges"/><rect fill="#1e1e1e" x="549" y="221.1" width="73.2" height="24.65" shape-rendering="crispEdges"/><rect fill="#1e1e1e" x="622.2" y="221.1" width="146.4" height="24.65" shape-rendering="crispEdges"/><rect fill="#1e1e1e" x="768.6" y="221.1" width="646.6" height="24.65" shape-rendering="crispEdges"/><rect fill="#121212" x="1415.2" y="221.1" width="24.4" height="24.65" shape-rendering="crispEdges"/><rect fill="#1e1e1e" x="0" y="245.5" width="1415.2" height="24.65" shape-rendering="crispEdges"/><rect fill="#121212" x="1415.2" y="245.5" width="24.4" height="24.65" shape-rendering="crispEdges"/><rect fill="#1e1e1e" x="0" y="269.9" width="1415.2" height="24.65" shape-rendering="crispEdges"/><rect fill="#121212" x="1415.2" y="269.9" width="24.4" height="24.65" shape-rendering="crispEdges"/><rect fill="#1e1e1e" x="0" y="294.3" width="1415.2" height="24.65" shape-rendering="crispEdges"/><rect fill="#121212" x="1415.2" y="294.3" width="24.4" height="24.65" shape-rendering="crispEdges"/><rect fill="#1e1e1e" x="0" y="318.7" width="1415.2" height="24.65" shape-rendering="crispEdges"/><rect fill="#121212" x="1415.2" y="318.7" width="24.4" height="24.65" shape-rendering="crispEdges"/><rect fill="#1e1e1e" x="0" y="343.1" width="1415.2" height="24.65" shape-rendering="crispEdges"/><rect fill="#121212" x="1415.2" y="343.1" width="24.4" height="24.65" shape-rendering="crispEdges"/><rect fill="#1e1e1e" x="0" y="367.5" width="1415.2" height="24.65" shape-rendering="crispEdges"/><rect fill="#121212" x="1415.2" y="367.5" width="24.4" height="24.65" shape-rendering="crispEdges"/><rect fill="#1e1e1e" x="0" y="391.9" width="1415.2" height="24.65" shape-rendering="crispEdges"/><rect fill="#121212" x="1415.2" y="391.9" width="24.4" height="24.65" shape-rendering="crispEdges"/><rect fill="#1e1e1e" x="0" y="416.3" width="1415.2" height="24.65" shape-rendering="crispEdges"/><rect fill="#121212" x="1415.2" y="416.3" width="24.4" height="24.65" shape-rendering="crispEdges"/><rect fill="#1e1e1e" x="0" y="440.7" width="1415.2" height="24.65" shape-rendering="crispEdges"/><rect fill="#121212" x="1415.2" y="440.7" width="24.4" height="24.65" shape-rendering="crispEdges"/><rect fill="#1e1e1e" x="0" y="465.1" width="1415.2" height="24.65" shape-rendering="crispEdges"/><rect fill="#121212" x="1415.2" y="465.1" width="24.4" height="24.65" shape-rendering="crispEdges"/><rect fill="#1e1e1e" x="0" y="489.5" width="1415.2" height="24.65" shape-rendering="crispEdges"/><rect fill="#121212" x="1415.2" y="489.5" width="24.4" height="24.65" shape-rendering="crispEdges"/><rect fill="#1e1e1e" x="0" y="513.9" width="1415.2" height="24.65" shape-rendering="crispEdges"/><rect fill="#121212" x="1415.2" y="513.9" width="24.4" height="24.65" shape-rendering="crispEdges"/><rect fill="#1e1e1e" x="0" y="538.3" width="1415.2" height="24.65" shape-rendering="crispEdges"/><rect fill="#121212" x="1415.2" y="538.3" width="24.4" height="24.65" shape-rendering="crispEdges"/><rect fill="#1e1e1e" x="0" y="562.7" width="1415.2" height="24.65" shape-rendering="crispEdges"/><rect fill="#121212" x="1415.2" y="562.7" width="24.4" height="24.65" shape-rendering="crispEdges"/><rect fill="#1e1e1e" x="0" y="587.1" width="1415.2" height="24.65" shape-rendering="crispEdges"/><rect fill="#121212" x="1415.2" y="587.1" width="24.4" height="24.65" shape-rendering="crispEdges"/><rect fill="#1e1e1e" x="0" y="611.5" width="1415.2" height="24.65" shape-rendering="crispEdges"/><rect fill="#121212" x="1415.2" y="611.5" width="24.4" height="24.65" shape-rendering="crispEdges"/><rect fill="#1e1e1e" x="0" y="635.9" width="1415.2" height="24.65" shape-rendering="crispEdges"/><rect fill="#121212" x="1415.2" y="635.9" width="24.4" height="24.65" shape-rendering="crispEdges"/><rect fill="#1e1e1e" x="0" y="660.3" width="1415.2" height="24.65" shape-rendering="crispEdges"/><rect fill="#121212" x="1415.2" y="660.3" width="24.4" height="24.65" shape-rendering="crispEdges"/><rect fill="#1e1e1e" x="0" y="684.7" width="1415.2" height="24.65" shape-rendering="crispEdges"/><rect fill="#121212" x="1415.2" y="684.7" width="24.4" height="24.65" shape-rendering="crispEdges"/><rect fill="#1e1e1e" x="0" y="709.1" width="1415.2" height="24.65" shape-rendering="crispEdges"/><rect fill="#121212" x="1415.2" y="709.1" width="24.4" height="24.65" shape-rendering="crispEdges"/><rect fill="#1e1e1e" x="0" y="733.5" width="1415.2" height="24.65" shape-rendering="crispEdges"/><rect fill="#121212" x="1415.2" y="733.5" width="24.4" height="24.65" shape-rendering="crispEdges"/><rect fill="#1e1e1e" x="0" y="757.9" width="1415.2" height="24.65" shape-rendering="crispEdges"/><rect fill="#121212" x="1415.2" y="757.9" width="24.4" height="24.65" shape-rendering="crispEdges"/><rect fill="#1e1e1e" x="0" y="782.3" width="1415.2" height="24.65" shape-rendering="crispEdges"/><rect fill="#121212" x="1415.2" y="782.3" width="24.4" height="24.65" shape-rendering="crispEdges"/><rect fill="#1e1e1e" x="0" y="806.7" width="1415.2" height="24.65" shape-rendering="crispEdges"/><rect fill="#121212" x="1415.2" y="806.7" width="24.4" height="24.65" shape-rendering="crispEdges"/><rect fill="#1e1e1e" x="0" y="831.1" width="1415.2" height="24.65" shape-rendering="crispEdges"/><rect fill="#121212" x="1415.2" y="831.1" width="24.4" height="24.65" shape-rendering="crispEdges"/><rect fill="#1e1e1e" x="0" y="855.5" width="1415.2" height="24.65" shape-rendering="crispEdges"/><rect fill="#121212" x="1415.2" y="855.5" width="24.4" height="24.65" shape-rendering="crispEdges"/><rect fill="#1e1e1e" x="0" y="879.9" width="1415.2" height="24.65" shape-rendering="crispEdges"/><rect fill="#121212" x="1415.2" y="879.9" width="24.4" height="24.65" shape-rendering="crispEdges"/><rect fill="#1e1e1e" x="0" y="904.3" width="1415.2" height="24.65" shape-rendering="crispEdges"/><rect fill="#121212" x="1415.2" y="904.3" width="24.4" height="24.65" shape-rendering="crispEdges"/><rect fill="#1e1e1e" x="0" y="928.7" width="1415.2" height="24.65" shape-rendering="crispEdges"/><rect fill="#121212" x="1415.2" y="928.7" width="24.4" height="24.65" shape-rendering="crispEdges"/><rect fill="#242f38" x="0" y="953.1" width="36.6" height="24.65" shape-rendering="crispEdges"/><rect fill="#242f38" x="36.6" y="953.1" width="61" height="24.65" shape-rendering="crispEdges"/><rect fill="#242f38" x="97.6" y="953.1" width="36.6" height="24.65" shape-rendering="crispEdges"/><rect fill="#242f38" x="134.2" y="953.1" width="61" height="24.65" shape-rendering="crispEdges"/><rect fill="#242f38" x="195.2" y="953.1" width="36.6" height="24.65" shape-rendering="crispEdges"/><rect fill="#242f38" x="231.8" y="953.1" width="61" height="24.65" shape-rendering="crispEdges"/><rect fill="#242f38" x="292.8" y="953.1" width="36.6" height="24.65" shape-rendering="crispEdges"/><rect fill="#242f38" x="329.4" y="953.1" width="61" height="24.65" shape-rendering="crispEdges"/><rect fill="#242f38" x="390.4" y="953.1" width="36.6" height="24.65" shape-rendering="crispEdges"/><rect fill="#242f38" x="427" y="953.1" width="61" height="24.65" shape-rendering="crispEdges"/><rect fill="#242f38" x="488" y="953.1" width="36.6" height="24.65" shape-rendering="crispEdges"/><rect fill="#242f38" x="524.6" y="953.1" width="61" height="24.65" shape-rendering="crispEdges"/><rect fill="#242f38" x="585.6" y="953.1" width="36.6" height="24.65" shape-rendering="crispEdges"/><rect fill="#242f38" x="622.2" y="953.1" width="61" height="24.65" shape-rendering="crispEdges"/><rect fill="#242f38" x="683.2" y="953.1" width="36.6" height="24.65" shape-rendering="crispEdges"/><rect fill="#242f38" x="719.8" y="953.1" width="61" height="24.65" shape-rendering="crispEdges"/><rect fill="#242f38" x="780.8" y="953.1" width="61" height="24.65" shape-rendering="crispEdges"/><rect fill="#242f38" x="841.8" y="953.1" width="109.8" height="24.65" shape-rendering="crispEdges"/><rect fill="#242f38" x="951.6" y="953.1" width="341.6" height="24.65" shape-rendering="crispEdges"/><rect fill="#242f38" x="1293.2" y="953.1" width="12.2" height="24.65" shape-rendering="crispEdges"/><rect fill="#242f38" x="1305.4" y="953.1" width="24.4" height="24.65" shape-rendering="crispEdges"/><rect fill="#242f38" x="1329.8" y="953.1" width="97.6" height="24.65" shape-rendering="crispEdges"/><rect fill="#242f38" x="1427.4" y="953.1" width="12.2" height="24.65" shape-rendering="crispEdges"/>
    <g class="terminal-2161968182-matrix">
    <text class="terminal-2161968182-r2" x="12.2" y="20" textLength="12.2" clip-path="url(#terminal-2161968182-line-0)">⭘</text><text class="terminal-2161968182-r2" x="500.2" y="20" textLength="305" clip-path="url(#terminal-2161968182-line-0)">sshm&#160;—&#160;SSH&#160;Server&#160;Manager</text><text class="terminal-2161968182-r3" x="805.2" y="20" textLength="36.6" clip-path="url(#terminal-2161968182-line-0)">&#160;—&#160;</text><text class="terminal-2161968182-r3" x="841.8" y="20" textLength="73.2" clip-path="url(#terminal-2161968182-line-0)">v0.1.0</text><text class="terminal-2161968182-r1" x="1439.6" y="20" textLength="12.2" clip-path="url(#terminal-2161968182-line-0)">
</text><text class="terminal-2161968182-r4" x="12.2" y="44.4" textLength="12.2" clip-path="url(#terminal-2161968182-line-1)">▊</text><text class="terminal-2161968182-r5" x="24.4" y="44.4" textLength="1390.8" clip-path="url(#terminal-2161968182-line-1)">▔▔▔▔▔▔▔▔▔▔▔▔▔▔▔▔▔▔▔▔▔▔▔▔▔▔▔▔▔▔▔▔▔▔▔▔▔▔▔▔▔▔▔▔▔▔▔▔▔▔▔▔▔▔▔▔▔▔▔▔▔▔▔▔▔▔▔▔▔▔▔▔▔▔▔▔▔▔▔▔▔▔▔▔▔▔▔▔▔▔▔▔▔▔▔▔▔▔▔▔▔▔▔▔▔▔▔▔▔▔▔▔▔▔</text><text class="terminal-2161968182-r5" x="1415.2" y="44.4" textLength="12.2" clip-path="url(#terminal-2161968182-line-1)">▎</text><text class="terminal-2161968182-r1" x="1439.6" y="44.4" textLength="12.2" clip-path="url(#terminal-2161968182-line-1)">
</text><text class="terminal-2161968182-r4" x="12.2" y="68.8" textLength="12.2" clip-path="url(#terminal-2161968182-line-2)">▊</text><text class="terminal-2161968182-r6" x="48.8" y="68.8" textLength="73.2" clip-path="url(#terminal-2161968182-line-2)">搜索&#160;(/)</text><text class="terminal-2161968182-r5" x="1415.2" y="68.8" textLength="12.2" clip-path="url(#terminal-2161968182-line-2)">▎</text><text class="terminal-2161968182-r1" x="1439.6" y="68.8" textLength="12.2" clip-path="url(#terminal-2161968182-line-2)">
</text><text class="terminal-2161968182-r4" x="12.2" y="93.2" textLength="12.2" clip-path="url(#terminal-2161968182-line-3)">▊</text><text class="terminal-2161968182-r5" x="24.4" y="93.2" textLength="1390.8" clip-path="url(#terminal-2161968182-line-3)">▁▁▁▁▁▁▁▁▁▁▁▁▁▁▁▁▁▁▁▁▁▁▁▁▁▁▁▁▁▁▁▁▁▁▁▁▁▁▁▁▁▁▁▁▁▁▁▁▁▁▁▁▁▁▁▁▁▁▁▁▁▁▁▁▁▁▁▁▁▁▁▁▁▁▁▁▁▁▁▁▁▁▁▁▁▁▁▁▁▁▁▁▁▁▁▁▁▁▁▁▁▁▁▁▁▁▁▁▁▁▁▁▁▁</text><text class="terminal-2161968182-r5" x="1415.2" y="93.2" textLength="12.2" clip-path="url(#terminal-2161968182-line-3)">▎</text><text class="terminal-2161968182-r1" x="1439.6" y="93.2" textLength="12.2" clip-path="url(#terminal-2161968182-line-3)">
</text><text class="terminal-2161968182-r7" x="0" y="117.6" textLength="36.6" clip-path="url(#terminal-2161968182-line-4)">&#160;#&#160;</text><text class="terminal-2161968182-r7" x="36.6" y="117.6" textLength="158.6" clip-path="url(#terminal-2161968182-line-4)">&#160;Name&#160;&#160;&#160;&#160;&#160;&#160;&#160;&#160;</text><text class="terminal-2161968182-r7" x="195.2" y="117.6" textLength="256.2" clip-path="url(#terminal-2161968182-line-4)">&#160;Address&#160;&#160;&#160;&#160;&#160;&#160;&#160;&#160;&#160;&#160;&#160;&#160;&#160;</text><text class="terminal-2161968182-r7" x="451.4" y="117.6" textLength="97.6" clip-path="url(#terminal-2161968182-line-4)">&#160;User&#160;&#160;&#160;</text><text class="terminal-2161968182-r7" x="549" y="117.6" textLength="73.2" clip-path="url(#terminal-2161968182-line-4)">&#160;Auth&#160;</text><text class="terminal-2161968182-r7" x="622.2" y="117.6" textLength="146.4" clip-path="url(#terminal-2161968182-line-4)">&#160;Group&#160;&#160;&#160;&#160;&#160;&#160;</text><text class="terminal-2161968182-r1" x="1439.6" y="117.6" textLength="12.2" clip-path="url(#terminal-2161968182-line-4)">
</text><text class="terminal-2161968182-r2" x="0" y="142" textLength="36.6" clip-path="url(#terminal-2161968182-line-5)">&#160;1&#160;</text><text class="terminal-2161968182-r2" x="36.6" y="142" textLength="158.6" clip-path="url(#terminal-2161968182-line-5)">&#160;prod-web&#160;&#160;&#160;&#160;</text><text class="terminal-2161968182-r2" x="195.2" y="142" textLength="256.2" clip-path="url(#terminal-2161968182-line-5)">&#160;192.168.1.100&#160;&#160;&#160;&#160;&#160;&#160;&#160;</text><text class="terminal-2161968182-r2" x="451.4" y="142" textLength="97.6" clip-path="url(#terminal-2161968182-line-5)">&#160;admin&#160;&#160;</text><text class="terminal-2161968182-r2" x="549" y="142" textLength="73.2" clip-path="url(#terminal-2161968182-line-5)">&#160;key&#160;&#160;</text><text class="terminal-2161968182-r2" x="622.2" y="142" textLength="146.4" clip-path="url(#terminal-2161968182-line-5)">&#160;production&#160;</text><text class="terminal-2161968182-r1" x="1439.6" y="142" textLength="12.2" clip-path="url(#terminal-2161968182-line-5)">
</text><text class="terminal-2161968182-r2" x="0" y="166.4" textLength="36.6" clip-path="url(#terminal-2161968182-line-6)">&#160;2&#160;</text><text class="terminal-2161968182-r2" x="36.6" y="166.4" textLength="158.6" clip-path="url(#terminal-2161968182-line-6)">&#160;prod-db&#160;&#160;&#160;&#160;&#160;</text><text class="terminal-2161968182-r2" x="195.2" y="166.4" textLength="256.2" clip-path="url(#terminal-2161968182-line-6)">&#160;192.168.1.101&#160;&#160;&#160;&#160;&#160;&#160;&#160;</text><text class="terminal-2161968182-r2" x="451.4" y="166.4" textLength="97.6" clip-path="url(#terminal-2161968182-line-6)">&#160;admin&#160;&#160;</text><text class="terminal-2161968182-r2" x="549" y="166.4" textLength="73.2" clip-path="url(#terminal-2161968182-line-6)">&#160;key&#160;&#160;</text><text class="terminal-2161968182-r2" x="622.2" y="166.4" textLength="146.4" clip-path="url(#terminal-2161968182-line-6)">&#160;production&#160;</text><text class="terminal-2161968182-r1" x="1439.6" y="166.4" textLength="12.2" clip-path="url(#terminal-2161968182-line-6)">
</text><text class="terminal-2161968182-r2" x="0" y="190.8" textLength="36.6" clip-path="url(#terminal-2161968182-line-7)">&#160;3&#160;</text><text class="terminal-2161968182-r2" x="36.6" y="190.8" textLength="158.6" clip-path="url(#terminal-2161968182-line-7)">&#160;prod-cache&#160;&#160;</text><text class="terminal-2161968182-r2" x="195.2" y="190.8" textLength="256.2" clip-path="url(#terminal-2161968182-line-7)">&#160;192.168.1.102&#160;&#160;&#160;&#160;&#160;&#160;&#160;</text><text class="terminal-2161968182-r2" x="451.4" y="190.8" textLength="97.6" clip-path="url(#terminal-2161968182-line-7)">&#160;redis&#160;&#160;</text><text class="terminal-2161968182-r2" x="549" y="190.8" textLength="73.2" clip-path="url(#terminal-2161968182-line-7)">&#160;pwd&#160;&#160;</text><text class="terminal-2161968182-r2" x="622.2" y="190.8" textLength="146.4" clip-path="url(#terminal-2161968182-line-7)">&#160;production&#160;</text><text class="terminal-2161968182-r1" x="1439.6" y="190.8" textLength="12.2" clip-path="url(#terminal-2161968182-line-7)">
</text><text class="terminal-2161968182-r2" x="0" y="215.2" textLength="36.6" clip-path="url(#terminal-2161968182-line-8)">&#160;4&#160;</text><text class="terminal-2161968182-r2" x="36.6" y="215.2" textLength="158.6" clip-path="url(#terminal-2161968182-line-8)">&#160;staging-app&#160;</text><text class="terminal-2161968182-r2" x="195.2" y="215.2" textLength="256.2" clip-path="url(#terminal-2161968182-line-8)">&#160;10.0.0.50&#160;&#160;&#160;&#160;&#160;&#160;&#160;&#160;&#160;&#160;&#160;</text><text class="terminal-2161968182-r2" x="451.4" y="215.2" textLength="97.6" clip-path="url(#terminal-2161968182-line-8)">&#160;deploy&#160;</text><text class="terminal-2161968182-r2" x="549" y="215.2" textLength="73.2" clip-path="url(#terminal-2161968182-line-8)">&#160;pwd&#160;&#160;</text><text class="terminal-2161968182-r2" x="622.2" y="215.2" textLength="146.4" clip-path="url(#terminal-2161968182-line-8)">&#160;staging&#160;&#160;&#160;&#160;</text><text class="terminal-2161968182-r1" x="1439.6" y="215.2" textLength="12.2" clip-path="url(#terminal-2161968182-line-8)">
</text><text class="terminal-2161968182-r2" x="0" y="239.6" textLength="36.6" clip-path="url(#terminal-2161968182-line-9)">&#160;5&#160;</text><text class="terminal-2161968182-r2" x="36.6" y="239.6" textLength="158.6" clip-path="url(#terminal-2161968182-line-9)">&#160;bastion&#160;&#160;&#160;&#160;&#160;</text><text class="terminal-2161968182-r2" x="195.2" y="239.6" textLength="256.2" clip-path="url(#terminal-2161968182-line-9)">&#160;bastion.example.com&#160;</text><text class="terminal-2161968182-r2" x="451.4" y="239.6" textLength="97.6" clip-path="url(#terminal-2161968182-line-9)">&#160;jesen&#160;&#160;</text><text class="terminal-2161968182-r2" x="549" y="239.6" textLength="73.2" clip-path="url(#terminal-2161968182-line-9)">&#160;key&#160;&#160;</text><text class="terminal-2161968182-r1" x="1439.6" y="239.6" textLength="12.2" clip-path="url(#terminal-2161968182-line-9)">
</text><text class="terminal-2161968182-r1" x="1439.6" y="264" textLength="12.2" clip-path="url(#terminal-2161968182-line-10)">
</text><text class="terminal-2161968182-r1" x="1439.6" y="288.4" textLength="12.2" clip-path="url(#terminal-2161968182-line-11)">
</text><text class="terminal-2161968182-r1" x="1439.6" y="312.8" textLength="12.2" clip-path="url(#terminal-2161968182-line-12)">
</text><text class="terminal-2161968182-r1" x="1439.6" y="337.2" textLength="12.2" clip-path="url(#terminal-2161968182-line-13)">
</text><text class="terminal-2161968182-r1" x="1439.6" y="361.6" textLength="12.2" clip-path="url(#terminal-2161968182-line-14)">
</text><text class="terminal-2161968182-r1" x="1439.6" y="386" textLength="12.2" clip-path="url(#terminal-2161968182-line-15)">
</text><text class="terminal-2161968182-r1" x="1439.6" y="410.4" textLength="12.2" clip-path="url(#terminal-2161968182-line-16)">
</text><text class="terminal-2161968182-r1" x="1439.6" y="434.8" textLength="12.2" clip-path="url(#terminal-2161968182-line-17)">
</text><text class="terminal-2161968182-r1" x="1439.6" y="459.2" textLength="12.2" clip-path="url(#terminal-2161968182-line-18)">
</text><text class="terminal-2161968182-r1" x="1439.6" y="483.6" textLength="12.2" clip-path="url(#terminal-2161968182-line-19)">
</text><text class="terminal-2161968182-r1" x="1439.6" y="508" textLength="12.2" clip-path="url(#terminal-2161968182-line-20)">
</text><text class="terminal-2161968182-r1" x="1439.6" y="532.4" textLength="12.2" clip-path="url(#terminal-2161968182-line-21)">
</text><text class="terminal-2161968182-r1" x="1439.6" y="556.8" textLength="12.2" clip-path="url(#terminal-2161968182-line-22)">
</text><text class="terminal-2161968182-r1" x="1439.6" y="581.2" textLength="12.2" clip-path="url(#terminal-2161968182-line-23)">
</text><text class="terminal-2161968182-r1" x="1439.6" y="605.6" textLength="12.2" clip-path="url(#terminal-2161968182-line-24)">
</text><text class="terminal-2161968182-r1" x="1439.6" y="630" textLength="12.2" clip-path="url(#terminal-2161968182-line-25)">
</text><text class="terminal-2161968182-r1" x="1439.6" y="654.4" textLength="12.2" clip-path="url(#terminal-2161968182-line-26)">
</text><text class="terminal-2161968182-r1" x="1439.6" y="678.8" textLength="12.2" clip-path="url(#terminal-2161968182-line-27)">
</text><text class="terminal-2161968182-r1" x="1439.6" y="703.2" textLength="12.2" clip-path="url(#terminal-2161968182-line-28)">
</text><text class="terminal-2161968182-r1" x="1439.6" y="727.6" textLength="12.2" clip-path="url(#terminal-2161968182-line-29)">
</text><text class="terminal-2161968182-r1" x="1439.6" y="752" textLength="12.2" clip-path="url(#terminal-2161968182-line-30)">
</text><text class="terminal-2161968182-r1" x="1439.6" y="776.4" textLength="12.2" clip-path="url(#terminal-2161968182-line-31)">
</text><text class="terminal-2161968182-r1" x="1439.6" y="800.8" textLength="12.2" clip-path="url(#terminal-2161968182-line-32)">
</text><text class="terminal-2161968182-r1" x="1439.6" y="825.2" textLength="12.2" clip-path="url(#terminal-2161968182-line-33)">
</text><text class="terminal-2161968182-r1" x="1439.6" y="849.6" textLength="12.2" clip-path="url(#terminal-2161968182-line-34)">
</text><text class="terminal-2161968182-r1" x="1439.6" y="874" textLength="12.2" clip-path="url(#terminal-2161968182-line-35)">
</text><text class="terminal-2161968182-r1" x="1439.6" y="898.4" textLength="12.2" clip-path="url(#terminal-2161968182-line-36)">
</text><text class="terminal-2161968182-r1" x="1439.6" y="922.8" textLength="12.2" clip-path="url(#terminal-2161968182-line-37)">
</text><text class="terminal-2161968182-r1" x="1439.6" y="947.2" textLength="12.2" clip-path="url(#terminal-2161968182-line-38)">
</text><text class="terminal-2161968182-r8" x="0" y="971.6" textLength="36.6" clip-path="url(#terminal-2161968182-line-39)">&#160;/&#160;</text><text class="terminal-2161968182-r2" x="36.6" y="971.6" textLength="36.6" clip-path="url(#terminal-2161968182-line-39)">搜索&#160;</text><text class="terminal-2161968182-r8" x="97.6" y="971.6" textLength="36.6" clip-path="url(#terminal-2161968182-line-39)">&#160;a&#160;</text><text class="terminal-2161968182-r2" x="134.2" y="971.6" textLength="36.6" clip-path="url(#terminal-2161968182-line-39)">添加&#160;</text><text class="terminal-2161968182-r8" x="195.2" y="971.6" textLength="36.6" clip-path="url(#terminal-2161968182-line-39)">&#160;e&#160;</text><text class="terminal-2161968182-r2" x="231.8" y="971.6" textLength="36.6" clip-path="url(#terminal-2161968182-line-39)">编辑&#160;</text><text class="terminal-2161968182-r8" x="292.8" y="971.6" textLength="36.6" clip-path="url(#terminal-2161968182-line-39)">&#160;d&#160;</text><text class="terminal-2161968182-r2" x="329.4" y="971.6" textLength="36.6" clip-path="url(#terminal-2161968182-line-39)">删除&#160;</text><text class="terminal-2161968182-r8" x="390.4" y="971.6" textLength="36.6" clip-path="url(#terminal-2161968182-line-39)">&#160;⏎&#160;</text><text class="terminal-2161968182-r2" x="427" y="971.6" textLength="36.6" clip-path="url(#terminal-2161968182-line-39)">连接&#160;</text><text class="terminal-2161968182-r8" x="488" y="971.6" textLength="36.6" clip-path="url(#terminal-2161968182-line-39)">&#160;u&#160;</text><text class="terminal-2161968182-r2" x="524.6" y="971.6" textLength="36.6" clip-path="url(#terminal-2161968182-line-39)">上传&#160;</text><text class="terminal-2161968182-r8" x="585.6" y="971.6" textLength="36.6" clip-path="url(#terminal-2161968182-line-39)">&#160;x&#160;</text><text class="terminal-2161968182-r2" x="622.2" y="971.6" textLength="36.6" clip-path="url(#terminal-2161968182-line-39)">下载&#160;</text><text class="terminal-2161968182-r8" x="683.2" y="971.6" textLength="36.6" clip-path="url(#terminal-2161968182-line-39)">&#160;q&#160;</text><text class="terminal-2161968182-r2" x="719.8" y="971.6" textLength="36.6" clip-path="url(#terminal-2161968182-line-39)">退出&#160;</text><text class="terminal-2161968182-r8" x="780.8" y="971.6" textLength="61" clip-path="url(#terminal-2161968182-line-39)">&#160;esc&#160;</text><text class="terminal-2161968182-r2" x="841.8" y="971.6" textLength="61" clip-path="url(#terminal-2161968182-line-39)">取消搜索&#160;</text><text class="terminal-2161968182-r9" x="1293.2" y="971.6" textLength="12.2" clip-path="url(#terminal-2161968182-line-39)">▏</text><text class="terminal-2161968182-r8" x="1305.4" y="971.6" textLength="24.4" clip-path="url(#terminal-2161968182-line-39)">^p</text><text class="terminal-2161968182-r2" x="1329.8" y="971.6" textLength="97.6" clip-path="url(#terminal-2161968182-line-39)">&#160;palette</text>
    </g>
    </g>
</svg>
